<svg xmlns="http://www.w3.org/2000/svg" xmlns:xlink="http://www.w3.org/1999/xlink" viewBox="0 0 480 380" version="1">
  <defs>
    <pattern id="c" xlink:href="#a" patternTransform="matrix(.6594 0 0 .69006 -11.893 33.3)"/>
    <pattern id="a" xlink:href="#b" patternTransform="translate(1.17 120.59) scale(.55395)"/>
  </defs>
  <g id="TM1Tor" fill="#a40" fill-rule="evenodd" stroke="#000" style="cursor:pointer;">
    <rect width="90" height="118" stroke="none" x="190" y="170" fill="#fff" overflow="visible"/>
    <path d="M311.82 494.68v73.7l.78 5.43.82-5.66v-73.46h-1.6zM317.9 495.25v73.7l.77 5.43.83-5.67v-73.45h-1.6zM323.4 495.5v73.7l.78 5.43.82-5.67V495.5h-1.6zM297.64 495.68v73.7l.78 5.43.82-5.66v-73.46h-1.6zM302.1 495.3v73.72l.8 5.42.82-5.67V495.3h-1.6zM307.62 495.55v73.7l.78 5.43.83-5.67v-73.45h-1.6zM328.6 495.44v73.7l.8 5.43.82-5.67v-73.46h-1.6zM332.63 495.3v73.72l.78 5.42.84-5.67V495.3h-1.6zM339.05 495.55v73.7l.78 5.43.83-5.67v-73.45h-1.6zM287.8 495.46v73.7l.78 5.43.83-5.68v-73.46h-1.6zM291.8 495.55v73.7l.77 5.43.83-5.67v-73.45h-1.6z" stroke-width=".67" transform="matrix(1.49997 0 0 1.5273 -236.094 -587.937)"/>
    <path d="M284.64 516.48h60.33v3.14h-60.82l.5-3.14z" stroke-width=".71" transform="matrix(1.49997 0 0 1.5273 -236.094 -587.937)"/>
    <path d="M285.06 550.34h59.72v2.96h-60.2l.48-2.96z" stroke-width=".69" transform="matrix(1.49997 0 0 1.5273 -236.094 -587.937)"/>
  </g>
  <path d="M76.36 286.17c-3.13 0-5.66.02-5.66.04v188.85c0 .02 21.78.05 48.83.05h78.35l.04-.7v-62.03s10-17.43 28.64-17.43c18.65 0 28.64 16.03 28.64 16.03v64.13h83.07c27.05 0 50.15-.03 50.15-.05V299.48h.1v-13.26s-3.85-.04-6.98-.04c-3.14 0-4.48.02-4.48.04l-1.17 14.64h-9.55l-2.1-14.64-11.57 1.4 1.4 13c-4.9 0-5.65.22-11.16.22v-14.62c0-.02-2.53-.04-5.66-.04-3.14 0-5.65.02-5.65.04l-.7 14.5-9.28.12v-14.62c0-.02-2.5-.04-5.65-.04-3.14 0-5.67.02-5.67.04l.94 14.4-12.58.22-.47-14.15-10.4 1.62-2.1 12.52H276v-14.62l-11.53 1.87.47 11.57-9.9 1.17v-14.62c0-.02-2.53-.04-5.67-.04s-5.65.02-5.65.04l-.46 12.52-9.86 2.1v-14.62c0-.02-2.53-.04-5.67-.04-3.13 0-5.2 1.2-5.2 1.2l-.46 12.06-10 1.4v-14.62c0-.02-2.53-.04-5.66-.04-3.13 0-5.64.02-5.64.04v14.62l-8.9-.46-2.1-14.16c0-.02-2.5-.04-5.65-.04-3.13 0-5.66.02-5.66.04v14.62h-10.32l-1.87-14.38c0-.03-.66-.28-3.8-.28-3.13 0-5.66.02-5.66.04v14.62h-10v-14.62c0-.02-2.52-.04-5.65-.04-3.14 0-5.67.02-5.67.04l-.93 13.45-9.56 1.17-.47-13.45-10.87-1.18-.23 14.16c-3.3 0-6.58.46-10.1.46v-14.62c0-.02-2.52-.04-5.66-.04s-5.65.02-5.65.04l1.17 14.88c-2.42 0-9.28-.24-11.17-.24L80.16 286c0-.03-.66.18-3.8.18z" fill="#797979" fill-rule="evenodd" stroke="#000" stroke-width=".67" transform="matrix(1.49997 0 0 1.5273 -104.67 -436.277)"/>
  <path d="M198.17 474.6v-62.36s11.54-18 28.97-17.74c17.42.25 28.02 16.5 28.02 16.5v63.35h7.77v-64.82s-7.53-21.44-36.03-21.7c-28.5-.23-35.32 21.95-35.32 21.95l-.85 65.3 7.44-.5z" fill="url(#c)" fill-rule="evenodd" stroke="#5c5c5c" stroke-width=".67" transform="matrix(1.49997 0 0 1.5273 -104.67 -436.277)"/>
  <path d="M71 466.72h120.34M81.83 466.72v8.13M95.73 466.47v8.87M124 466.96v8.13M140.7 467.2v7.9M158.84 466.96v8.38M178.4 466.96v7.88M70.9 458.33h120.33M88.78 458.33v8.13M131.64 458.58v8.13M168.15 458.58v8.38M116.57 458.7v8.14M70.23 449.77h120.34M81.07 449.77v8.14M123.22 450.02v8.13M139.95 450.26v7.9M158.08 450.02v8.37M177.62 450.02v7.88M108.86 450.14v8.13M70.12 441.4h120.34M88.02 441.4v8.12M101.9 441.15v8.87M130.88 441.64v8.13M148.54 441.9v7.87M167.38 441.64v8.38M186.45 441.64v7.88M115.8 441.76v8.13M70.47 433.26H190.8M81.3 433.26v8.14M95.2 433v8.9M123.46 433.5v8.14M140.18 433.75v7.9M158.32 433.5v8.38M177.86 433.5v7.9M70.36 424.88H190.7M102.15 424.64v8.87M131.1 425.13v8.13M148.77 425.38v7.88M167.62 425.13v8.38M116.04 425.25v8.13M70.94 416.74H191.3M81.78 416.74v8.14M95.67 416.5v8.87M123.93 417v8.13M140.65 417.24v7.9M158.78 417v8.37M178.33 417v7.88M109.56 417.12v8.13M70.83 408.36h121.4M88.72 408.36v8.13M131.58 408.6v8.14M149.25 408.86v7.88M168.1 408.6v8.4M187.16 408.6v7.9M116.5 408.73v8.14M71.65 399.74H197.4M82.48 399.74v8.13M96.38 399.5v8.86M141.35 400.24v7.88M159.5 400v8.37M179.04 400v7.88M110.27 400.1v8.15M89.43 391.36v8.13M132.3 391.6v8.14M149.95 391.85v7.9M168.8 391.6v8.38M187.87 391.6v7.9M117.2 391.73v8.13M388.57 466.87H263.3M377.73 466.87V475M363.84 466.62v8.87M335.58 467.1v8.14M318.86 467.36v7.88M281.18 467.1v7.9M388.7 458.5H262.4M370.8 458.5v8.12M327.93 458.74v8.13M310.27 459v7.87M291.42 458.74v8.38M272.35 458.74v7.88M343 458.86V467M389.34 449.93H262.17M378.5 449.93v8.13M364.6 449.68v8.87M336.35 450.17v8.13M319.63 450.42v7.88M301.5 450.17v8.38M281.95 450.17v7.88M389.45 441.55H262.98M357.67 441.3v8.87M328.7 441.8v8.13M311.03 442.03v7.9M273.1 441.8v7.88M343.76 441.92v8.13M389.1 433.4H262.88M378.27 433.4v8.14M364.37 433.16v8.87M336.1 433.66v8.13M301.25 433.66v8.38M281.7 433.66v7.9M389.22 425.03H263.7M371.32 425.03v8.13M328.45 425.28v8.13M310.8 425.53v7.88M291.96 425.28v8.38M272.88 425.28v7.88M343.54 425.4v8.13M388.63 416.9h-126M377.8 416.9v8.13M318.92 417.4v7.88M300.8 417.14v8.38M281.24 417.14v7.9M350 417.27v8.13M388.75 408.52H261.82M370.85 408.52v8.13M356.95 408.27v8.87M328 408.77v8.13M310.32 409v7.9M291.48 408.77v8.38M272.4 408.77v7.9M343.06 408.9v8.13M387.92 399.9H255.58M377.1 399.9V408M363.2 399.65v8.87M334.94 400.14v8.13M300.1 400.14v8.38M280.53 400.14v7.88M349.3 400.26v8.14M370.14 391.52v8.13M327.3 391.77v8.13M309.62 392v7.9M271.7 391.77v7.88M71.53 391.36H208.6M82 383.22v8.14M95.9 382.98v8.88M124.17 383.47v8.14M140.9 383.72v7.9M159.02 383.47v8.38M178.57 383.47v7.9M109.8 383.6v8.13" fill="none" stroke="#5e5e5e" stroke-width=".67" transform="matrix(1.49997 0 0 1.5273 -104.67 -436.277)"/>
  <path d="M213.95 383.54v5.67" fill="none" stroke="#5e5e5e" stroke-width=".57" transform="matrix(1.49997 0 0 1.5273 -104.67 -436.277)"/>
  <path d="M388.05 391.5H244.4M377.57 383.38v8.14M363.67 383.13V392M318.7 383.87v7.9M300.56 383.62V392M281 383.62v7.9M349.77 383.75v8.13M261.64 383.57v7.9M245.63 382.82v7.9" fill="none" stroke="#5e5e5e" stroke-width=".67" transform="matrix(1.49997 0 0 1.5273 -104.67 -436.277)"/>
  <path d="M229.97 382.67v5.27" fill="none" stroke="#5e5e5e" stroke-width=".55" transform="matrix(1.49997 0 0 1.5273 -104.67 -436.277)"/>
  <path d="M71.18 383.22H226.6M71.06 374.85H226.5M88.96 374.85v8.13M149.48 375.34v7.9M168.32 375.1v8.37M187.4 375.1v7.88M116.75 375.22v8.13M205.95 375.03v7.9M388.4 383.38H223.3M388.5 375H225.8M356.72 374.76v8.87M310.1 375.5v7.88M291.25 375.25v8.38M253.63 375.2v7.87M221.5 375.03v7.9M254.7 391.54v7.9M82.12 366.68v8.13M124.28 366.92v8.14M141 367.17v7.9M178.68 366.92v7.9M109.9 367.05v8.13M198.05 366.86v7.9M214.06 366.12v7.9M377.67 366.83v8.14M363.78 366.6v8.86M335.52 367.08v8.13M318.8 367.33v7.88M300.67 367.08v8.38M281.12 367.08v7.9M349.9 367.2v8.14M230.07 366.12v7.9M71.3 366.68H226.7M71.17 358.3H226.6M89.07 358.3v8.13M102.97 358.05v8.87M131.93 358.55v8.13M149.6 358.8v7.88M168.43 358.55v8.38M187.5 358.55v7.88M116.86 358.67v8.13M206.06 358.48v7.9M388.5 366.83H223.43M388.62 358.45H225.9M370.73 358.45v8.13M356.83 358.2v8.88M327.87 358.7v8.13M310.2 358.95v7.88M291.36 358.7v8.38M272.3 358.7v7.9M342.94 358.82v8.14M253.74 358.64v7.88M238.08 358.48v7.9M221.6 358.48v7.9M82.12 349.6v8.13M96.02 349.35v8.88M124.28 349.85v8.13M159.13 349.85v8.38M178.68 349.85v7.88M109.9 349.97v8.13M198.05 349.78v7.9M214.06 349.05v7.88M377.67 349.75v8.14M363.78 349.5v8.88M335.52 350v8.13M318.8 350.25v7.88M300.67 350v8.38M281.12 350v7.9M349.9 350.12v8.14M261.75 349.94v7.9M71.3 349.6H226.7M71.17 341.22H226.6M89.07 341.22v8.13M102.97 340.97v8.87M131.93 341.47v8.13M149.6 341.72v7.88M168.43 341.47v8.38M187.5 341.47v7.88M116.86 341.6v8.13M206.06 341.4v7.9M388.5 349.76H223.43M388.62 341.37H225.9M356.83 341.13V350M327.87 341.62v8.13M310.2 341.87v7.88M272.3 341.62v7.9M342.94 341.74v8.14M253.74 341.56v7.88M221.6 341.4v7.9M81.12 333.57v8.13M123.28 333.8v8.15M158.13 333.8v8.4M177.68 333.8v7.9M108.9 333.94v8.13M197.05 333.75v7.9M213.06 333v7.9M376.67 333.72v8.13M362.78 333.47v8.88M334.52 333.97v8.13M317.8 334.2v7.9M299.67 333.97v8.38M280.12 333.97v7.88M348.9 334.1v8.12M260.75 333.9v7.9M244.73 333.17v7.88M229.07 333v7.9M70.3 333.56H225.7M71.16 325.2H225.6M88.07 325.2v8.12M101.97 324.94v8.87M130.93 325.44v8.13M148.6 325.68v7.9M167.43 325.44v8.37M186.5 325.44v7.88M115.86 325.56v8.13M205.06 325.37v7.9M387.5 333.72H222.43M387.62 325.34H224.9M369.73 325.34v8.13M355.84 325.1v8.87M326.87 325.6v8.12M309.2 325.84v7.88M290.36 325.6v8.37M271.3 325.6v7.87M341.94 325.7v8.14M252.74 325.53v7.88M237.08 325.37v7.9M220.6 325.37v7.9M82.46 317.53v8.14M124.6 317.78v8.13M159.46 317.78v8.38M179 317.78v7.9M110.24 317.9v8.14M198.38 317.72v7.9M214.4 316.98v7.9M378 317.7v8.12M364.1 317.44v8.87" fill="none" stroke="#5e5e5e" stroke-width=".67" transform="matrix(1.49997 0 0 1.5273 -104.67 -436.277)"/>
  <path d="M301 317.94v7.26" fill="none" stroke="#5e5e5e" stroke-width=".63" transform="matrix(1.49997 0 0 1.5273 -104.67 -436.277)"/>
  <path d="M281.45 317.94v7.88M350.22 318.06v8.13M262.08 317.87v7.9M230.4 316.98v7.9M71.62 317.53h155.43M89.4 309.15v8.14M103.3 308.9v8.88M132.27 309.4v8.14M149.93 309.65v7.9M168.76 309.4v8.38M187.84 309.4v7.9M117.2 309.53v8.13M206.4 309.34v7.9M388.84 317.7h-165.1M388.96 309.3H226.22M371.06 309.3v8.14M357.17 309.06v8.88M328.2 309.55v8.14M310.53 309.8v7.9M291.7 309.55v8.38M272.62 309.55v7.9M343.27 309.68v8.13M254.08 309.5v7.88M238.42 309.34v7.9M221.93 309.34v7.9" fill="none" stroke="#5e5e5e" stroke-width=".67" transform="matrix(1.49997 0 0 1.5273 -104.67 -436.277)"/>
  <path d="M72.1 309.15H299M81.85 301.32v8.13M103.45 301.08v8.87M148.17 301.4v8.14M167.95 301.16v7.88M200.86 300.74v8.38M221.8 300.74v7.9M113.67 300.87V309M255.2 301v7.9M276.26 300.94v7.88M375.95 301.23v7.9M343.38 300.84v7.9M325.47 300.76v7.88M298.97 301.43v7.9M125.07 300.7v8.13" fill="none" stroke="#5e5e5e" stroke-width=".81" transform="matrix(1.49997 0 0 1.5273 -104.67 -436.277)"/>
  <g id="TM1Fenster">
    <g transform="matrix(1.7855 0 0 1.90258 -124.6 -614.85)">
      <rect ry="0" y="353.59" x="94.09" height="28.06" width="20.64" color="#000" fill="gray" overflow="visible"/>
      <rect width="14.95" height="19.65" x="96.94" y="358.26" ry="0" color="#000" fill="#b3b3b3" overflow="visible"/>
      <path color="#000" fill="#666" overflow="visible" d="M90.74 348.93h27.34v5.6H90.74z"/>
      <path d="M98.96 358.58v18.07l.68 1.33.7-1.4v-18h-1.38zM102.93 358.35v18.07l.68 1.33.72-1.4v-18h-1.4zM108.78 358.58v18.07l.67 1.33.7-1.4v-18h-1.37z" fill="#2c2c2c" fill-rule="evenodd" stroke="#000" stroke-width=".31"/>
      <path d="M97.4 364.57h13.68v2.17H97.3l.1-2.17z" fill="#2c2c2c" fill-rule="evenodd" stroke="#000" stroke-width=".28"/>
    </g>
    <g transform="matrix(1.7855 0 0 1.90258 11.59 -614.85)">
      <rect ry="0" y="353.59" x="94.09" height="28.06" width="20.64" color="#000" fill="gray" overflow="visible"/>
      <rect width="14.95" height="19.65" x="96.94" y="358.26" ry="0" color="#000" fill="#b3b3b3" overflow="visible"/>
      <path color="#000" fill="#666" overflow="visible" d="M90.74 348.93h27.34v5.6H90.74z"/>
      <path d="M98.96 358.58v18.07l.68 1.33.7-1.4v-18h-1.38zM102.93 358.35v18.07l.68 1.33.72-1.4v-18h-1.4zM108.78 358.58v18.07l.67 1.33.7-1.4v-18h-1.37z" fill="#2c2c2c" fill-rule="evenodd" stroke="#000" stroke-width=".31"/>
      <path d="M97.4 364.57h13.68v2.17H97.3l.1-2.17z" fill="#2c2c2c" fill-rule="evenodd" stroke="#000" stroke-width=".28"/>
    </g>
    <g transform="matrix(1.7855 0 0 1.90258 239.307 -614.85)">
      <rect width="20.64" height="28.06" x="94.09" y="353.59" ry="0" color="#000" fill="gray" overflow="visible"/>
      <rect ry="0" y="358.26" x="96.94" height="19.65" width="14.95" color="#000" fill="#b3b3b3" overflow="visible"/>
      <path color="#000" fill="#666" overflow="visible" d="M90.74 348.93h27.34v5.6H90.74z"/>
      <path d="M98.96 358.58v18.07l.68 1.33.7-1.4v-18h-1.38zM102.93 358.35v18.07l.68 1.33.72-1.4v-18h-1.4zM108.78 358.58v18.07l.67 1.33.7-1.4v-18h-1.37z" fill="#2c2c2c" fill-rule="evenodd" stroke="#000" stroke-width=".31"/>
      <path d="M97.4 364.57h13.68v2.17H97.3l.1-2.17z" fill="#2c2c2c" fill-rule="evenodd" stroke="#000" stroke-width=".28"/>
    </g>
    <g transform="matrix(-1.7855 0 0 1.90258 485.632 -614.85)">
      <rect ry="0" y="353.59" x="94.09" height="28.06" width="20.64" color="#000" fill="gray" overflow="visible"/>
      <rect width="14.95" height="19.65" x="96.94" y="358.26" ry="0" color="#000" fill="#b3b3b3" overflow="visible"/>
      <path color="#000" fill="#666" overflow="visible" d="M90.74 348.93h27.34v5.6H90.74z"/>
      <path d="M98.96 358.58v18.07l.68 1.33.7-1.4v-18h-1.38zM102.93 358.35v18.07l.68 1.33.72-1.4v-18h-1.4zM108.78 358.58v18.07l.67 1.33.7-1.4v-18h-1.37z" fill="#2c2c2c" fill-rule="evenodd" stroke="#000" stroke-width=".31"/>
      <path d="M97.4 364.57h13.68v2.17H97.3l.1-2.17z" fill="#2c2c2c" fill-rule="evenodd" stroke="#000" stroke-width=".28"/>
    </g>
  </g>
  <path color="#000" fill="#280b0b" overflow="visible" d="M0 289.32h478.97V380H0z"/>
  <g color="#000">
    <path fill="#ccc" overflow="visible" d="M444.57 194.45h6.54v124.3h-6.53z"/>
    <path id="TM1Lampe0" TMData="1" class="TM1Lampen" d="M465.7 151.7l-6.82 43.87h-22.1L430 151.7c11.9-.84 23.8-.4 35.73 0z" fill="#fccb00" stroke="#b3b3b3" stroke-width=".68" overflow="visible" style="cursor:pointer;"/>
    <path d="M427.74 145.18c13.6-2.45 26.8-2.45 40.2 0v6.78h-40.2zM435 314.43c8.7-1.57 17.12-1.57 25.67 0v4.32H435z" fill="#ccc" overflow="visible"/>
  </g>
  <g color="#000">
    <path fill="#ccc" overflow="visible" d="M393.48 194.45h6.54v124.3h-6.54z"/>
    <path id="TM1Lampe1" TMData="0" class="TM1Lampen" d="M414.62 151.7l-6.83 43.87h-22.1l-6.82-43.88c11.92-.84 23.82-.4 35.74 0z" fill="#333" stroke="#b3b3b3" stroke-width=".68" overflow="visible" style="cursor:pointer;"/>
    <path d="M376.65 145.18c13.6-2.45 26.8-2.45 40.2 0v6.78h-40.2zM383.92 314.43c8.68-1.57 17.1-1.57 25.66 0v4.32h-25.66z" fill="#ccc" overflow="visible"/>
  </g>
  <g color="#000">
    <path fill="#ccc" overflow="visible" d="M342.4 194.45h6.53v124.3h-6.54z"/>
    <path id="TM1Lampe2" TMData="0" class="TM1Lampen" d="M363.53 151.7l-6.83 43.87h-22.1l-6.8-43.88c11.9-.84 23.8-.4 35.73 0z" fill="#333" stroke="#b3b3b3" stroke-width=".68" overflow="visible" style="cursor:pointer;"/>
    <path d="M325.56 145.18c13.6-2.45 26.8-2.45 40.2 0v6.78h-40.2zM332.83 314.43c8.68-1.57 17.1-1.57 25.66 0v4.32h-25.67z" fill="#ccc" overflow="visible"/>
  </g>
  <g color="#000">
    <path fill="#ccc" overflow="visible" d="M291.3 194.45h6.54v124.3h-6.54z"/>
    <path id="TM1Lampe3" TMData="1" class="TM1Lampen" d="M312.44 151.7l-6.83 43.87h-22.08l-6.82-43.88c11.9-.84 23.82-.4 35.74 0z" fill="#fccb00" stroke="#b3b3b3" stroke-width=".68" overflow="visible" style="cursor:pointer;"/>
    <path d="M274.47 145.18c13.6-2.45 26.8-2.45 40.2 0v6.78h-40.2zM281.74 314.43c8.68-1.57 17.1-1.57 25.66 0v4.32h-25.66z" fill="#ccc" overflow="visible"/>
  </g>
  <g color="#000">
    <path fill="#ccc" overflow="visible" d="M158.6 194.45h6.53v124.3h-6.54z"/>
    <path id="TM1Lampe4" TMData="1" class="TM1Lampen" d="M179.73 151.7l-6.83 43.87h-22.1L144 151.7c11.9-.84 23.8-.4 35.73 0z" fill="#fccb00" stroke="#b3b3b3" stroke-width=".68" overflow="visible" style="cursor:pointer;"/>
    <path d="M141.76 145.18c13.6-2.45 26.8-2.45 40.2 0v6.78h-40.2zM149.03 314.43c8.68-1.57 17.1-1.57 25.66 0v4.32h-25.67z" fill="#ccc" overflow="visible"/>
  </g>
  <g color="#000">
    <path fill="#ccc" overflow="visible" d="M107.5 194.45h6.54v124.3h-6.54z"/>
    <path id="TM1Lampe5" TMData="1" class="TM1Lampen" d="M128.64 151.7l-6.83 43.87H99.73L92.9 151.7c11.9-.84 23.82-.4 35.74 0z" fill="#fccb00" stroke="#b3b3b3" stroke-width=".68" overflow="visible" style="cursor:pointer;"/>
    <path d="M90.67 145.18c13.6-2.45 26.8-2.45 40.2 0v6.78h-40.2zM97.94 314.43c8.68-1.57 17.1-1.57 25.66 0v4.32H97.94z" fill="#ccc" overflow="visible"/>
  </g>
  <g color="#000">
    <path fill="#ccc" overflow="visible" d="M56.4 194.45h6.55v124.3H56.4z"/>
    <path id="TM1Lampe6" TMData="0" class="TM1Lampen" d="M77.55 151.7l-6.83 43.87h-22.1l-6.8-43.88c11.9-.84 23.8-.4 35.73 0z" fill="#333" stroke="#b3b3b3" stroke-width=".68" overflow="visible" style="cursor:pointer;"/>
    <path d="M39.58 145.18c13.6-2.45 26.8-2.45 40.2 0v6.78h-40.2zM46.85 314.43c8.67-1.57 17.1-1.57 25.66 0v4.32H46.86z" fill="#ccc" overflow="visible"/>
  </g>
  <text id="TM1Zahl" style="font-size:20px;fill:#fff;font-family:PTSans, 'Helvetica Neue', 'Helvetica', sans-serif;" text-anchor="left" x="10" y="44" visibility="hidden">
	   Geheime Zahl: 
  </text>
</svg>
